Simulation
nRows=15
nColumns=15
endheader
time  TH_x TH_y TH_z SC_y  SC_z  SC_x  AC_y  AC_z  AC_x  GH_y  GH_z  GH_yy  EL_x  PS_y
0.0  0.000000  0.000000  0.000000  -24.56973703584904  0.5797126097905926  -2.685168411061172  57.96643470967088  3.9175737005239557  2.5536113359448867  -84.44382878917331  2.067458045962241  123.37139700804126  20.197485137972233  120.000000
0.04016479400749064  0.000000  0.000000  0.000000  -24.5956873313749  0.5892767211510356  -2.711668495474662  57.94393485092906  3.9961033063343177  2.557976795376332  -79.92172484678778  2.077167952359087  118.75155804894807  20.112014266865415  120.000000
0.08032958801498127  0.000000  0.000000  0.000000  -24.673716498697907  0.6242422572699933  -2.784079900770813  57.868869285685975  4.219706982082745  2.5571841776417488  -67.21103639718308  2.1929762168346145  105.74372936477805  19.86347550927521  120.000000
0.12049438202247191  0.000000  0.000000  0.000000  -24.81121566706147  0.6952034741908236  -2.89616964259442  57.72452546915381  4.5611730788880145  2.5352471535543697  -50.82691654471742  2.5960360427933336  88.85590848557025  19.476116593702823  120.000000
0.16065917602996255  0.000000  0.000000  0.000000  -25.021139252940777  0.8028767555944509  -3.050071413271463  57.49774006566779  4.990491350180826  2.4914449960468685  -36.92193872245822  3.3844691353283323  74.23706047055468  18.98074734666985  120.000000
0.20082397003745317  0.000000  0.000000  0.000000  -25.313772046150298  0.9408493171113822  -3.2455976679732794  57.1832753573664  5.4802764357918115  2.4326259114221664  -27.503071834213607  4.52870043674215  63.89736548781436  18.406970907667247  120.000000
0.24098876404494382  0.000000  0.000000  0.000000  -25.698898845723857  1.1055034515171382  -3.4766755997569985  56.78398493954464  6.00800345360529  2.3687134760975157  -21.534362500102002  5.961817400800553  56.81004749070786  17.78226257801379  120.000000
0.28115355805243447  0.000000  0.000000  0.000000  -26.18239360922629  1.2979447528093508  -3.73354768826373  56.313173834298006  6.5578723893639905  2.3065633498776257  -17.708526142312778  7.631189546998419  51.6815915598103  17.128963035460526  120.000000
0.3213183520599251  0.000000  0.000000  0.000000  -26.76390523363229  1.5219501036223135  -4.003288743319795  55.78877145281869  7.11959751538289  2.251316537206457  -15.182489751383164  9.5010098147537  47.68740204705959  16.464971236955467  120.000000
0.3614831460674157  0.000000  0.000000  0.000000  -27.43931965318797  1.7809970671523032  -4.268886092928777  55.22943035340465  7.685608376715855  2.2075796638266794  -13.472044269232251  11.545248415758946  44.364801435319215  15.80411920793585  120.000000
0.40164794007490634  0.000000  0.000000  0.000000  -28.199930165276783  2.07804163758295  -4.510661668066838  54.6544871262254  8.249308257198962  2.1787395860901144  -12.297628549636611  13.742549771596382  41.45845636796306  15.157561567238425  120.000000
0.441812734082397  0.000000  0.000000  0.000000  -29.033864878528583  2.4146544961142773  -4.707263840838767  54.0822132742883  8.802868964689022  2.1662363476555058  -11.495983902893311  16.073070281718135  38.83112646789967  14.534154992171068  120.000000
0.48197752808988764  0.000000  0.000000  0.000000  -29.927785649876164  2.790676592108493  -4.838028820534398  53.529137331057946  9.336825225348745  2.1692672480849677  -10.968388157829105  18.516573242790855  36.41104929947271  13.940250968598258  120.000000
0.5221423220973783  0.000000  0.000000  0.000000  -30.868245347018014  3.2044590528408854  -4.885106411681164  53.009141107425876  9.840864591544008  2.1860707738493383  -10.65087200739418  21.051497351586793  34.161318583316614  13.379871397416215  120.000000
0.5623071161048689  0.000000  0.000000  0.000000  -31.84260957741211  3.6527954804105875  -4.83218691132411  52.5342792854978  10.30296116388875  2.2132948039734543  -10.49526025288668  23.654693677646673  32.05989536118946  12.854775204754711  120.000000
